<?xml version="1.0" encoding="utf-8"?>
<!-- Generator: Adobe Illustrator 26.0.2, SVG Export Plug-In . SVG Version: 6.00 Build 0)  -->
<svg version="1.1" id="Camada_1" xmlns="http://www.w3.org/2000/svg" xmlns:xlink="http://www.w3.org/1999/xlink" x="0px" y="0px"
	 viewBox="0 0 1080 1080" style="enable-background:new 0 0 1080 1080;" xml:space="preserve">
<style type="text/css">
	.st0{fill:#FFFFFF;}
</style>
<g>
	<path class="st0" d="M898.9,615c-5-0.2-10.1,0-15.4,0c-1.6-8.3-3-16.1-4.7-23.8c-0.5-2-1.2-3.7-2.2-5.2c0-0.3,0-0.7,0-1
		c-0.1-1-0.2-1.9-0.3-2.9c-9-46.6-24-129.8-33.2-176.3c-0.9-4-2.8-7.6-5.4-10.7c-46.7-54-93.4-107.9-140.3-161.8
		c-3.6-4.2-7.7-8-12.1-11.3c-9.1-6.9-19.8-9-30.8-7.9c-9.7,1-16.8-1.9-22.8-9.8c-6.6-8.6-14.7-16-21.8-24.2c-4.3-5-9.2-7-15.8-7
		c-36.4,0.2-72.8-0.1-109.2,0.3c-4.4,0-9.7,2.8-13,6c-8.5,8.2-16.6,16.8-24,26c-5.3,6.6-11.2,9.4-19.7,8.6
		c-18.2-1.5-32.4,6.2-44.2,20c-20.9,24.7-42.3,48.9-63.5,73.3c-2.5,2.9-32.5,36.9-34.5,40.1c0,0-0.1,0.1-0.1,0.1
		c-13.8,15.1-27.2,30.6-40.3,46.3c-3.5,4.2-6,9.1-7.2,14.4c-10.6,53.9-20.8,107.9-31.1,161.8c-2.8,14.8-5.7,29.7-8.5,44.3
		c-10.5,1.9-22-3.4-29.1,7.8l0.1,7.1c5.1,10.7,15.5,7.4,23.8,8.5c0.3,0.8,0.4,1,0.4,1.2c-1.6,9-3.3,18-5,27
		c-2.2,12,2.1,17.6,14.2,17.6c27.3,0.1,54.5,0.1,81.8,0c10.6,0,13.8-2.8,15.5-13.1c11.9-74.7,23.8-149.4,35.9-224.1
		c0.6-3.2,2-6.2,4.2-8.7c13.4-14.9,27-29.6,40.5-44.3c1.2-1.3,2.6-2.3,4.9-4.3c-0.8,19.2-1.5,37.1-2.4,54.9
		c-3.2,68.4-6.4,136.8-9.6,205.2l-8.2,174.9c-1,22.7-2.2,45.3-3.1,67.9c-0.3,8.4,3.1,13.6,10.4,13.8c13.8,0.4,27.6,0.4,41.4,0.2
		c0.5,0.1,1,0.1,1.5,0.2c1.9,0.1,57.2,0.1,59.1,0.1h226.5c2.4,0,4.8,0,7.2-0.2c6.9-0.6,10.3-4.7,10.9-11.3c0.1-2.9,0.1-5.8-0.2-8.7
		c-4.3-93.2-8.6-186.4-12.9-279.6c-0.5-9.6-2.3-66.5-3-76.1c-0.1-1.7-0.4-3.2-0.9-4.6c0-0.9,0-1.8-0.1-2.7
		c-1.9-40.2-3.8-80.4-5.6-120.7c-0.2-4.1,0-8.3,0-14c16.5,17.9,31.8,34.5,47,51.2c1.5,1.6,1.9,4.3,2.3,6.6
		c11.9,74.4,23.7,148.9,35.6,223.3c1.8,11.4,4.8,14,16.2,14c26.3,0,52.6,0,78.8,0c15.1,0,19-4.8,16.1-19.6c-1.7-8.6-3.3-17.2-5-26.2
		c4.6-0.2,8.2-0.2,11.7-0.6c6.7-0.8,11-5.4,11-11.2C910.7,619.9,906,615.3,898.9,615z M600,214.1c0.8-2.2,1.8-4.4,3-7.5
		c6.9,7.5,13.5,14.5,19.7,21.7c1.1,1.2,1.4,3.5,1.4,5.3c0.1,15.4,0.2,30.8,0,46.3c0,2.1-0.7,4.2-1.8,6
		c-22.6,33.3-45.2,66.5-67.8,99.8c-0.7,0.7-1.4,1.4-2.2,1.9v0c-1.1-19.1,0-36.5,6.4-54C573.3,294,586.3,253.9,600,214.1z
		 M580.9,197.3c-13.4,39-26.6,77.3-39.7,115.6l-1.8,0.1c-13.2-38.3-26.3-76.5-39.8-115.7H580.9z M456.4,234.5c0-2.2,0.4-5,1.8-6.6
		c6.1-7.1,12.6-13.9,19.5-21.4c1.4,3.9,2.5,7,3.6,10.1c14.7,42.8,30.2,85.3,43.8,128.4c4.2,13,3.5,27.6,5,41.5l-2.6,0.6
		c-1.4-1.8-2.8-3.6-4.1-5.4c-21.1-31.1-42.3-62.1-63.2-93.3c-2.2-3.6-3.5-7.7-3.6-11.9C456.1,262.5,456.3,248.5,456.4,234.5z
		 M277.7,659.6c-3.8,3.6-13.2,1.5-20.1,1.5c-14.5,0.1-28.9,0-44.2,0c1.5-8,3-15.4,4.4-22.9h65.2
		C281.2,646.2,281.9,655.6,277.7,659.6z M528.7,851.6v32.2H507c-10.8,0-60.5-0.1-82.5,0c-0.4,0-0.8,0-1.1,0c-12.2-0.1-24.5,0-37.4,0
		c1.4-27.8,2.7-54.6,4-82.3c5.3,0,9.7,0.1,14.3,0c48.9-1.1,86-36.2,88.9-85c1-17.5,0.5-35.2,0.5-52.8c0-11.7-4.1-15.5-15.9-15.5
		c-24.1,0-48.2,0-72.4,0h-7.6c0-6.8-0.2-12.5,0-18.3c0.7-17.1,1.5-34.2,2.3-51.3c2.2-47.5,4.6-94.9,6.6-142.4
		c1.5-35.9,2.5-71.8,3.5-107.7c0.2-8.8-4-14-11-14.3c-7-0.3-11.7,5.3-11.9,14.3c-0.2,6.3,0.4,12.6-0.2,18.8c-0.4,3.5-1.7,7.5-4,10.1
		c-20.7,22.9-41.8,45.4-62.4,68.4c-3.1,3.6-5.1,7.9-6.1,12.6c-2.4,11.1-3.9,22.3-5.7,33.5c-7.3,45.9-14.5,91.9-22,137.8
		c-0.3,1.9-2.7,5-4.2,5c-20,0.3-40,0.2-60.2,0.2c0.2-1.5,0.2-2.5,0.3-3.4c12.3-65.1,24.8-130.1,37.4-195.2c0.8-3.7,2.5-7.1,5-10
		c12.6-14.9,25.6-29.5,38.2-44.4c0.9-1.1,1.7-2.3,2.3-3.4c8.3-9,27.5-30.9,28.7-32.3c22.1-25.5,44.5-50.8,66.2-76.6
		c8.5-10.1,18.4-14.3,32.4-11.8c0,14.4-0.5,28.6,0.2,42.8c0.3,6.1,2.1,12.1,5.4,17.3C467,340,495.9,382,524.3,424.2
		c2.7,4.1,4.2,8.9,4.2,13.9c0.1,116.7,0.2,233.5,0.3,350.2c0,2.6,0,39.3,0.5,52.2c-0.2,0.8-0.3,1.7-0.4,2.6
		C528.6,845.8,528.7,848.7,528.7,851.6z M390.8,779.4c1.7-36.6,3.3-71.8,4.9-107.7l74.1,0c0,15.5,0.5,30.8-0.1,46.1
		c-1.2,28.2-23.1,52.5-49,58.2C411.4,778,401.8,778.2,390.8,779.4z M691.4,777.5c-41.5,6.2-76.3-21.6-78.7-59.1
		c-1-15.3-0.2-30.7-0.2-46.7l74,0C688.1,707.2,689.8,742.4,691.4,777.5z M796.6,614.6c-0.5-1.1-0.9-2.3-1.2-3.5
		c-8.9-55.6-17.7-111.3-26.3-167c-1.3-8.4-3.9-15.4-10-21.7c-17-17.7-32.8-36.7-50.3-53.9C698,358,693.4,347,694.9,332.2
		c1.1-12.1-3.7-18.2-11.6-18c-7.7,0.2-11.6,5.9-11.2,17.8c2.5,64.5,5.1,129.1,7.7,193.7c0.1,2.1,0.4,4.1,0.9,6.1
		c0.1,5.7,1.9,54.7,2.1,58.5c0.9,19,1.7,38,2.6,58.1l-9,0c-24.1,0-48.2-0.1-72.3,0c-10.9,0-15,4-15,14.8c0,18.1-0.3,36.2,0.3,54.2
		c1.5,42.5,34.8,78.2,77.3,83.2c8.3,1,16.7,1.1,25.8,1.7c1.3,27.1,2.6,53.9,3.9,81.1H551.9c0-5.6,0-10.7,0-15.7
		c0-8.2,0.2-16.4-0.2-24.6c0-0.8-0.1-1.6-0.3-2.4c0.5-12.9,0.5-49.6,0.5-52.3c0.1-116.5,0.1-233,0-349.5c-0.2-5.5,1.5-10.9,4.6-15.4
		c25.9-37.8,51.1-76,77.7-113.3c9.9-13.9,15.3-27.8,13.5-44.8c-1-9.2-0.2-18.6-0.2-27.7c13.1-1.6,23.5-0.5,32.3,9.8
		c45.7,53.2,91.8,106.1,137.7,159.2c2.2,2.5,3.7,5.5,4.4,8.8c5.6,28.6,11,57.2,16.5,85.9c3.2,17,12.5,70.6,16,87.6
		c0.4,1.9,1.1,3.5,1.9,4.9c0,0.6,0.1,1.3,0.2,2c1,6.1,2.2,12.2,3.4,18.7H796.6z M853.6,661.1c-14.9,0-29.9-0.1-44.8,0.1
		c-4.2,0.1-6.1-1.3-6.5-5.5c-0.5-5.5-1.6-10.9-2.6-17.8l50.4,0c14.6,0,14.6,0,17.2,14.4c0.5,2.6,0.9,5.2,1.5,8.8H853.6z"/>
	<path class="st0" d="M638,423.8c-15.7-0.1-31.4-0.1-47,0c-9,0-14,3.8-14.4,10.8c-0.3,7,5.1,11.8,14.1,12.1c7.9,0.2,15.9,0,23.8,0
		s15.9,0.2,23.9,0c8.7-0.3,13.6-4.8,13.5-11.7C651.9,428,646.8,423.8,638,423.8z"/>
	<path class="st0" d="M493.4,460.3c-6.9,0-11.4,5.3-11.4,13.8s4.2,13.7,11.3,13.8c7.1,0,11.4-5.2,11.4-13.6
		C504.8,465.9,500.3,460.3,493.4,460.3z"/>
	<path class="st0" d="M493.6,571.9c-6.9-0.2-11.5,5.2-11.6,13.6c0,8.6,4,13.8,11.1,13.9c7.2,0.1,11.5-4.9,11.6-13.4
		C504.8,577.5,500.5,572.1,493.6,571.9z"/>
</g>
</svg>
