<?xml version="1.0" encoding="utf-8"?>
<!-- Generator: Adobe Illustrator 26.0.2, SVG Export Plug-In . SVG Version: 6.00 Build 0)  -->
<svg version="1.1" id="Camada_1" xmlns="http://www.w3.org/2000/svg" xmlns:xlink="http://www.w3.org/1999/xlink" x="0px" y="0px"
	 viewBox="0 0 1080 1080" style="enable-background:new 0 0 1080 1080;" xml:space="preserve">
<style type="text/css">
	.st0{fill:#FFFFFF;}
</style>
<g>
	<path class="st0" d="M399.21,494.95c4.72,1.13,6.81,3.21,8.25,7.56c4.97,15.01,12.79,28.5,23.78,39.89
		c15.07,15.61,30.34,31.03,45.8,46.25c9.58,9.42,21.15,15.18,34.83,15.41c18.21,0.31,36.44,0.45,54.65,0.25
		c14.28-0.15,26.69-5.6,36.82-15.57c15-14.76,29.83-29.7,44.48-44.81c11.78-12.15,20.4-26.37,25.57-42.54
		c1.19-3.72,3.2-5.3,7.13-6.23c21.24-5,35.35-18.05,40.69-39.3c5.08-20.21-0.86-37.56-15.54-52.25c-2.12-2.12-3.8-5.74-3.86-8.7
		c-0.34-19.09-0.03-38.19-0.21-57.29c-0.25-27.28-15.7-47.04-41.73-54.41c-2.37-0.67-4.91-3.36-5.95-5.74
		c-14.67-33.37-39.35-55.46-74.11-66.21c-6.55-2.03-13.37-3.19-20.07-4.76c-10.85,0-21.71,0-32.56,0
		c-10.58,2.16-21.44,3.44-31.7,6.63c-56.1,17.47-92.9,54.52-110.3,110.67c-7.12,22.96-6.62,46.68-6.33,70.34
		c0.05,4.18-1.08,7.04-4.26,10.07c-14.87,14.14-20.38,31.61-15.39,51.54C364.46,476.72,378.22,489.92,399.21,494.95z M652.42,496.82
		c-5.06,13.67-12.94,25.44-23.19,35.7c-13.03,13.05-26.13,26.04-39.08,39.16c-7.57,7.67-16.49,11.52-27.36,11.36
		c-15.4-0.22-30.81-0.13-46.21-0.03c-9.87,0.06-18.24-3.38-25.17-10.29c-13.99-13.93-28.02-27.83-41.83-41.94
		c-16.22-16.58-25.9-36.53-27.1-59.68c-1.01-19.66-0.21-39.41-0.21-60.13c11.17,0,21.98-0.17,32.79,0.03
		c49.78,0.94,94.48-13.06,133.15-44.97c0.67-0.55,1.36-1.08,2.09-1.54c0.35-0.22,0.81-0.25,1.68-0.49
		c14.61,25.73,36.53,41.5,66.92,46.27C656.89,439.33,662.88,468.58,652.42,496.82z M680.04,414.2
		c10.78,1.54,20.11,13.16,21.42,26.26c1.4,13.99-7.33,27.49-21.42,32.49C680.04,453.11,680.04,433.68,680.04,414.2z M519.46,229.88
		c21.42-3.12,42.8-3.32,63.34,5.28c28.25,11.82,46.28,32.85,54.93,61.93c1.46,4.92,3.51,6.16,8.42,6.26
		c20.72,0.43,33.49,13.44,33.73,34.08c0.2,17.32,0.04,34.64,0.04,51.84c-45.27,4.1-66.22-25.42-84.14-62.46
		c-4.87,5.82-7.97,10.34-11.86,14.04c-33.19,31.6-72.76,47.81-118.61,48.31c-21.24,0.23-42.48,0.04-64.2,0.04
		C391.8,303.91,448.84,240.17,519.46,229.88z M400.5,413.82c0,10.06,0,19.92,0,29.77c0,9.68,0,19.36,0,29.1
		c-12.59-3.34-21.78-16.1-21.66-29.83C378.95,429.6,387.97,417.12,400.5,413.82z"/>
	<path class="st0" d="M832.14,869.47c-7.82-46.83-14.86-93.8-23.76-140.42c-8.22-43.01-33.53-73.3-74.7-88.83
		c-27.54-10.4-55.62-19.47-83.73-28.23c-9.2-2.86-15.08-6.21-13.16-16.81c0.05-0.29-0.44-0.67-0.71-1.07c-6.59,0-13.19,0-20.03,0
		c1.17,29.19-10.95,55.23-15.95,84.01c-2.24-2.42-3.58-3.74-4.78-5.17c-7.66-9.15-15.24-18.37-22.94-27.49
		c-5.44-6.45-9.88-15.24-16.86-18.48c-6.99-3.24-16.6-0.61-25.02-1.1c-4.47-0.26-7.15,1.54-9.81,4.79
		c-11.68,14.28-23.57,28.37-35.31,42.6c-1.19,1.44-1.84,3.32-2.75,4.99c-0.7-0.49-1.4-0.99-2.11-1.48
		c-4.7-27.62-17.05-53.68-15.65-82.76c-7.19,0-13.79,0-20.7,0c-0.16,2.03-0.63,3.78-0.35,5.39c1.09,6.32-1.8,8.92-7.7,10.81
		c-27.23,8.72-54.35,17.8-81.42,27.01c-45.55,15.5-73.8,46.64-82.7,94.1c-6.67,35.58-12.13,71.38-18.11,107.08
		c-1.92,11.45-3.76,22.92-5.68,34.66c195.2,0,389.57,0,583.97,0C832.16,871.62,832.32,870.52,832.14,869.47z M507.25,717.62
		c-6.31,44.43-12.68,88.85-19.12,133.73c-39.36,0-78.51,0-118.57,0c3.14-31.6,6.25-62.98,9.43-95.02c-7-0.74-13.59-1.43-21.31-2.24
		c-3.29,32.57-6.54,64.78-9.84,97.39c-24.87,0-49.25,0-74.26,0c3.02-18.2,5.92-35.89,8.91-53.57c3.8-22.44,6.99-45.01,11.69-67.27
		c7.16-33.91,27.43-57.85,59.78-70.01c30.19-11.36,61.08-20.88,92.74-31.57c8.02,31.96,15.81,63.01,23.93,95.37
		c8.29-9.92,15.98-19.12,24.18-28.94c4.28,6.38,8.19,12.04,11.86,17.85C507.37,714.45,507.45,716.23,507.25,717.62z M551.64,715.16
		c6.02,43.57,12.35,87.1,18.57,130.65c0.24,1.67,0.03,3.4,0.03,5.63c-20.19,0-39.82,0-60.24,0c1.66-12.03,3.19-23.56,4.84-35.08
		c4.93-34.32,9.96-68.62,14.72-102.96c0.34-2.45-0.73-5.52-2.1-7.7c-5.77-9.15-11.9-18.08-18.23-27.58
		c8.06-9.63,15.54-19.82,24.5-28.49c2.43-2.35,11.22-2.13,13.76,0.33c8.8,8.54,16.13,18.58,24.13,28.19
		c-6.13,9.18-12.27,17.84-17.75,26.89C552.16,707.87,551.2,711.91,551.64,715.16z M733.02,851.22c-3.27-32.33-6.51-64.41-9.81-97.05
		c-7.34,0.7-13.95,1.32-21.34,2.02c3.17,31.81,6.29,63.21,9.47,95.16c-39.72,0-78.86,0-118.55,0c-2.6-17.83-5.25-35.58-7.78-53.34
		c-3.67-25.77-7.12-51.56-10.99-77.3c-0.67-4.46-0.06-7.89,2.63-11.42c3.15-4.12,5.83-8.59,9.35-13.85
		c8.04,9.59,15.73,18.77,24.25,28.94c8.09-32.26,15.89-63.37,23.85-95.11c3.7,1.19,6.74,2.13,9.76,3.14
		c25.91,8.64,51.9,17.02,77.69,25.99c36.19,12.59,58.84,37.82,65.97,75.44c7.35,38.75,13.16,77.8,19.76,117.39
		C782.64,851.22,758.3,851.22,733.02,851.22z"/>
</g>
</svg>
