<?xml version="1.0" encoding="utf-8"?>
<!-- Generator: Adobe Illustrator 26.0.2, SVG Export Plug-In . SVG Version: 6.00 Build 0)  -->
<svg version="1.1" id="Camada_1" xmlns="http://www.w3.org/2000/svg" xmlns:xlink="http://www.w3.org/1999/xlink" x="0px" y="0px"
	 viewBox="0 0 1080 1080" style="enable-background:new 0 0 1080 1080;" xml:space="preserve">
<style type="text/css">
	.st0{fill:#FEFEFE;}
</style>
<g>
	<path class="st0" d="M803.73,689.33c-1.97-1.79-5.11-2.5-9.34-2.13c-18.95,2.25-20.02-1.29-20.42-2.62
		c-4.29-14.23-11.13-25.34-22.19-36.04c-14.75-14.77-31.51-23.09-49.81-24.75c-36.41-3.3-78.77-6.95-120.75-8.51
		c-60.67-2.26-123.81,0.01-193,6.93c-35.55,3.56-61.03,19.96-75.74,48.77c-1.24,2.42-2.05,4.69-2.78,6.69
		c-2.13,5.92-3.99,11.05-14.45,9.05c-3.68,0.12-8.03,0.36-8.78,0.55l-0.63,0.09c-4.67-0.05-7.72,0.77-9.51,2.52
		c-1.61,1.58-2.41,4.18-2.44,7.95c-0.1,13.21-0.02,26.65,0.06,39.65c0.03,4.72-1.24,10.83,2.12,14.15c0.17,0.17,3.03-0.01,3.03-0.01
		c2.52-0.02,26.36-3.62,26.7-0.29c0.47,4.56,1,7.08,1.54,11.64l0.54,4.59c0.29,1.83,0.6,3.73,0.92,5.64
		c0.68,4.09,1.38,8.33,1.87,12.54c2.04,17.44,10.27,31.96,23.16,40.91c12.65,8.78,28.76,11.36,45.33,7.28
		c23.7-5.84,51.74-12.96,79.96-21.54c26.74-8.13,42.86-26.39,47.89-54.27c1.38-7.66,2.27-15.58,3.13-23.24
		c0.72-6.42,1.46-13.06,2.5-19.57c2.27-14.3,13.34-23.78,27.63-23.78c0.23,0,0.47,0,0.7,0.01c14.27,0.31,24.85,9.87,26.94,24.36
		c1.63,11.24,2.84,22.3,4.14,34.56c1.77,16.61,7.05,29.77,16.17,40.22c8.51,10.91,19.7,18.3,33.32,22.07l1.1,0.3
		c26.27,7.27,53.45,14.78,80.33,21.48c14.37,3.58,29,1.38,41.19-6.2c12.46-7.74,21.11-20.25,24.36-35.21
		c1.14-5.25,1.75-10.77,2.34-16.11l0.29-2.62c0.46-4.04,2.01-9.33,9.77-8.62c4.54,0.41,9.28,0.24,13.86,0.08l1.5-0.05
		c7.03-0.24,10.18-3.46,10.23-10.44c0.13-21.25,0.13-40.29-0.01-58.2C806.45,693.59,805.52,690.96,803.73,689.33z M749.18,744.57
		c-0.59,4.68-1.2,9.52-1.69,14.26c-0.85,8.2-2.04,16.96-3.64,26.77c-1.46,8.92-5.94,16.23-12.61,20.59
		c-4.35,2.84-9.46,4.3-14.86,4.3c-2.63,0-5.34-0.34-8.06-1.04c-28.19-7.22-53.96-14.1-78.77-21.05
		c-15.85-4.44-25.97-14.55-30.08-30.05l-0.05-0.26c-0.6-4.6-1.21-9.2-1.82-13.8c-1.34-10.17-2.69-20.35-3.95-30.53
		c-3.49-28.13-25.41-47.82-53.29-47.9c-0.05,0-0.1,0-0.15,0c-27.57,0-50.05,20.02-53.49,47.65c-0.68,5.52-1.32,11.05-1.95,16.57
		c-0.75,6.58-1.53,13.39-2.39,20.08c-2.57,20.01-13.27,32.79-31.78,37.99c-25.99,7.3-52.08,14.27-77.54,20.72
		c-9.29,2.35-17.7,1.23-24.31-3.27c-6.83-4.64-11.12-12.4-12.42-22.43c-1.84-14.25-3.7-28.49-5.57-42.73l-2.42-18.49
		c-2.35-18.01,2.21-35.33,12.85-48.76c11.32-14.29,28.59-23.28,48.64-25.3c66.14-6.7,130.86-9.01,192.38-6.84
		c31.5,1.1,63.44,3.83,94.33,6.46c7.26,0.62,14.52,1.24,21.79,1.84c4.51,0.37,8.83,2.08,13,3.73c1.84,0.72,3.73,1.48,5.58,2.08
		l0.26,0.1c22.05,10.73,34.08,28.44,34.81,51.21C752.37,719.19,750.75,732.09,749.18,744.57z"/>
	<path class="st0" d="M817.15,521.48c-0.19-12.53-7.47-22.02-19.98-26.06l-0.5-0.17c-1.19-0.41-2.44-0.64-3.7-0.67
		c-0.82-0.02-2.46-0.04-4.84-0.06c-0.01-3.34,0.04-6.72,0.09-10.22c0.04-2.51,0.08-5.03,0.09-7.55c0-0.13,0-0.27,0-0.4
		c-0.57-21.5-5.1-43.56-13.87-67.45c-16.62-45.28-43.62-82.53-80.27-110.7c-23.53-18.93-50.59-33.18-80.53-42.45l0-0.04
		c-0.02-3.14-0.03-6.28-0.03-9.43c-0.01-7.17-0.02-14.59-0.24-21.97c-0.44-14.99-9.55-25.42-24.38-27.89
		c-0.65-0.11-1.31-0.17-1.98-0.17c-8.5-0.03-17-0.07-25.5-0.11c-21.87-0.11-44.49-0.21-66.76-0.09
		c-15.56,0.09-27.25,12.15-27.79,28.69c-0.24,7.33-0.23,14.69-0.22,21.8c0,3.05,0,6.1-0.01,9.22
		c-39.16,12.12-73.51,32.8-102.21,61.59c-41.61,41.74-67.16,96.5-70.11,150.22c-0.18,3.36,1.02,6.65,3.34,9.1
		c2.31,2.44,5.53,3.82,8.89,3.82c0,0,0.01,0,0.02,0c3.02,0,342.54-0.1,411.5-0.12c0.03,4.19,0.06,9.05,0.04,13.83
		c-138.11-0.43-418.39-0.86-425.14-0.54c-18.51,0.89-29.69,12.53-29.9,31.11c-0.06,4.91,0.02,9.84,0.11,14.85
		c0.04,2.16,0.07,4.32,0.09,6.47c0,0.26,0.01,0.52,0.03,0.79l1.13,15.01c0.08,1.06,0.3,2.1,0.65,3.1
		c6.63,19.08,24.53,19.08,33.13,19.08c50.84,0,101.67,0,152.51,0c110.34,0,220.7-0.01,331.05-0.04c4.35,0,8.44-0.35,12.14-1.03
		c13.59-2.51,22.88-13.43,23.13-27.16C817.33,545,817.34,533.75,817.15,521.48z M491.46,225.54c0.16-4.97,2.55-4.99,3.45-4.99
		c22.14-0.13,44.69-0.02,66.5,0.09c8.15,0.04,16.29,0.08,24.44,0.11c2.5,0.53,2.96,1.33,3.04,4.28c0.21,7.04,0.22,14.28,0.23,21.29
		c0,3.18,0.01,6.37,0.03,9.45l-0.25,154.67c-0.02,11.06-0.68,11.08-8.74,11.29c-24.07,0.64-50.27,0.65-80.1,0.02
		c-6.96-0.14-7.75-1.14-8.6-5.08l-0.22-160.77c0.02-3.12,0.01-6.25,0.01-9.37C491.24,239.61,491.23,232.46,491.46,225.54z
		 M320.08,456c5.67-43.59,27.75-87.19,61.8-121.34c24.05-24.12,52.52-41.94,84.81-53.1l0.2,137.24c0,0.86,0.09,1.71,0.27,2.55
		c3.52,16.41,14.1,24.56,32.35,24.92c30.25,0.6,56.85,0.59,81.34-0.03c29.2-0.73,32.61-20.06,32.63-34.53l0.22-130.18
		c24.12,8.34,46,20.36,65.21,35.84c0.07,0.06,0.15,0.12,0.22,0.18c32.97,25.32,57.29,58.89,72.3,99.8
		c7.81,21.28,11.86,40.73,12.38,59.46c-0.02,2.37-0.06,4.75-0.09,7.12c-0.05,3.05-0.1,6.15-0.1,9.29
		c-6.19-0.03-13.19-0.06-20.91-0.09c0.02-12.49-0.19-25.06-0.2-25.2c-0.11-6.68-5.56-12.04-12.25-12.04h0
		C726.5,455.88,391.86,455.98,320.08,456z M792.65,555.41c-0.03,1.82-0.56,3.05-3.09,3.51c-2.24,0.41-4.83,0.62-7.7,0.62
		c-161.19,0.04-322.37,0.04-483.56,0.03c-6.89,0-8.76-0.6-9.5-1.58l-0.95-12.56c-0.02-2.07-0.06-4.16-0.1-6.43
		c-0.07-4.61-0.15-9.37-0.1-13.94c0.06-5.73,0.92-6.64,6.56-6.92c12.33-0.44,458.54,0.39,496.29,0.89c2.11,0.81,2.12,1.5,2.14,2.83
		C792.84,533.86,792.84,544.83,792.65,555.41z"/>
</g>
</svg>
