<?xml version="1.0" encoding="utf-8"?>
<!-- Generator: Adobe Illustrator 26.0.2, SVG Export Plug-In . SVG Version: 6.00 Build 0)  -->
<svg version="1.1" id="Camada_1" xmlns="http://www.w3.org/2000/svg" xmlns:xlink="http://www.w3.org/1999/xlink" x="0px" y="0px"
	 viewBox="0 0 1080 1080" style="enable-background:new 0 0 1080 1080;" xml:space="preserve">
<style type="text/css">
	.st0{fill:#FFFFFF;}
</style>
<g>
	<path class="st0" d="M593.97,807.19c0,8.1,0.14,15.06-0.03,22.01c-0.31,13-9.53,22.3-22.54,22.48c-14.61,0.2-29.23,0.2-43.84,0
		c-13.26-0.18-22.44-9.67-22.64-23.09c-0.11-6.9-0.02-13.8-0.02-21.4c-7.52,0-14.42,0.09-21.31-0.02
		c-13.78-0.22-23.15-9.47-23.2-23.25c-0.11-34.8-0.12-69.6,0.07-104.39c0.02-4.52-1.3-6.91-5.32-9.22
		c-69.89-40.13-104.61-117.51-92.89-191.29c13.06-82.17,72.09-142.98,151.83-158.58c104.27-20.39,205.65,50.98,222.16,156.39
		c12.2,77.93-23.88,153.62-92.43,193.41c-3.92,2.28-5.43,4.6-5.4,9.2c0.22,34.1,0.14,68.2,0.11,102.31
		c-0.01,16.64-8.72,25.38-25.23,25.44C607.08,807.21,600.87,807.19,593.97,807.19z M482.62,695.46c19.06,0,37.06,0,55.68,0
		c0-14.92-0.2-29.48,0.11-44.03c0.11-4.83-1.34-8.21-4.81-11.49c-8.25-7.81-16.21-15.93-24.15-24.07
		c-5.52-5.66-5.87-11.81-1.26-16.63c4.79-5.01,11.13-4.64,17.15,1.05c2.02,1.91,3.99,3.88,5.91,5.9
		c5.84,6.15,11.65,12.35,17.94,19.02c8.7-8.91,16.08-16.61,23.61-24.15c6.35-6.37,12.57-7.01,17.62-2.07
		c5.08,4.96,4.53,11.33-1.71,17.65c-8.15,8.26-16.42,16.38-24.56,24.65c-1.4,1.42-3.36,3.26-3.39,4.93
		c-0.25,16.38-0.15,32.76-0.15,49.09c19,0,37.17,0,55.64,0c0-7,0.61-13.55-0.14-19.94c-1.32-11.28,3.26-17.48,13.35-22.82
		c61.61-32.58,96.65-104.15,84.95-171.85c-16.33-94.51-100.67-154.31-195.29-138.46c-88.17,14.77-150.58,103.64-134.44,191.48
		c10.09,54.9,39.95,95.38,89.2,121.48c6.06,3.21,9.05,7.32,8.8,14.24C482.39,677.96,482.62,686.51,482.62,695.46z M482.93,740.02
		c44.77,0,88.72,0,132.88,0c0-7.39,0-14.41,0-21.44c-44.56,0-88.68,0-132.88,0C482.93,725.92,482.93,732.78,482.93,740.02z
		 M482.93,784.43c44.7,0,88.82,0,132.75,0c0-7.53,0-14.57,0-21.42c-44.53,0-88.48,0-132.75,0
		C482.93,770.24,482.93,777.1,482.93,784.43z M527.49,828.99c14.96,0,29.39,0,43.67,0c0-7.51,0-14.53,0-21.45
		c-14.82,0-29.08,0-43.67,0C527.49,814.74,527.49,821.6,527.49,828.99z"/>
	<path class="st0" d="M404.1,350.45c-2.15,2.66-3.96,6.88-6.97,8.07c-3.29,1.3-9.1,1.35-11.37-0.73
		c-11.92-10.89-23.31-22.41-34.37-34.19c-3.94-4.2-3.01-9.66,1.04-13.8c4.28-4.38,9.88-5.34,14.32-1.16
		c11.77,11.08,23.03,22.69,34.3,34.28C402.5,344.41,402.78,347.06,404.1,350.45z"/>
	<path class="st0" d="M705.6,361.2c-2.67-2.13-6.91-3.9-8.13-6.9c-1.33-3.28-1.44-9.12,0.62-11.38
		c10.88-11.93,22.4-23.32,34.17-34.4c4.2-3.95,9.64-3.1,13.82,0.91c4.41,4.23,5.46,9.86,1.29,14.31
		c-11.05,11.79-22.67,23.05-34.25,34.33C711.62,359.53,708.99,359.84,705.6,361.2z"/>
	<path class="st0" d="M404.39,663.42c-2.38,3.98-3.64,7.32-5.92,9.69c-9.49,9.86-19.21,19.51-28.98,29.08
		c-5.94,5.82-12.33,6.09-17.14,1.07c-4.62-4.82-4.29-10.97,1.26-16.62c9.75-9.93,19.64-19.73,29.51-29.55
		c3.76-3.75,8.43-5.83,13.15-2.82C399.45,656.31,401.52,660.08,404.39,663.42z"/>
	<path class="st0" d="M538.31,261.44c0-7.19-0.16-14.38,0.05-21.57c0.2-7.09,4.82-11.75,11.14-11.7c6.32,0.05,10.91,4.71,11,11.85
		c0.17,14.38,0.18,28.76-0.01,43.14c-0.09,7.08-4.84,11.76-11.15,11.71c-6.29-0.05-10.81-4.74-11-11.87
		C538.17,275.83,538.31,268.63,538.31,261.44z"/>
	<path class="st0" d="M303.9,517.65c-6.73,0-13.45,0.09-20.18-0.03c-7.69-0.14-12.53-4.43-12.63-10.96
		c-0.1-6.57,4.73-11.17,12.31-11.24c13.92-0.14,27.83-0.12,41.75-0.01c7.71,0.06,12.54,4.4,12.64,10.94
		c0.1,6.75-4.92,11.17-13.02,11.28C317.81,517.73,310.85,517.65,303.9,517.65z"/>
	<path class="st0" d="M794.5,495.4c7.19,0,14.38-0.16,21.57,0.05c7.09,0.2,11.75,4.83,11.7,11.15c-0.05,6.29-4.75,10.91-11.86,11
		c-14.38,0.17-28.76,0.18-43.14-0.01c-7.08-0.09-11.74-4.83-11.69-11.15c0.05-6.33,4.7-10.81,11.85-10.99
		C780.12,495.25,787.31,495.4,794.5,495.4z"/>
	<path class="st0" d="M706.55,651.56c3.93,2.42,7.23,3.75,9.6,6.03c9.69,9.32,19.15,18.87,28.57,28.46
		c5.81,5.91,6.18,12.36,1.3,17.17c-4.86,4.8-11.21,4.33-17.16-1.54c-9.74-9.6-19.37-19.31-29-29.02c-3.76-3.79-5.66-8.53-2.6-13.17
		C699.34,656.35,703.16,654.35,706.55,651.56z"/>
</g>
</svg>
