<?xml version="1.0" encoding="utf-8"?>
<!-- Generator: Adobe Illustrator 26.0.2, SVG Export Plug-In . SVG Version: 6.00 Build 0)  -->
<svg version="1.1" id="Camada_1" xmlns="http://www.w3.org/2000/svg" xmlns:xlink="http://www.w3.org/1999/xlink" x="0px" y="0px"
	 viewBox="0 0 1080 1080" style="enable-background:new 0 0 1080 1080;" xml:space="preserve">
<style type="text/css">
	.st0{fill:#FFFFFF;}
</style>
<g>
	<path class="st0" d="M792.18,501.67c-17.03-107.42-99.62-195.58-205.51-219.19c-10.57-2.36-21.31-3.96-32.78-6.06
		c1.92-1.65,3.34-2.96,4.85-4.15c8.13-6.37,16.32-12.68,24.43-19.08c8.55-6.74,8.42-12.81-0.33-19.4c-2.03,0-4.05,0-6.08,0
		c-18.56,14.39-37.17,28.71-55.64,43.2c-5.93,4.65-6.25,11.53-0.57,16.05c17.6,13.99,35.35,27.8,53.18,41.51
		c4.69,3.6,10.23,2.78,13.59-1.33c3.4-4.15,2.76-10.19-1.92-14.01c-7.37-6.02-14.98-11.75-22.47-17.64
		c-1.43-1.13-2.75-2.4-4.96-4.35c60.44,7.05,117.33,38.44,159.35,87.31c69.97,81.39,79.09,203.23,20.64,293.13
		c-50.4,77.52-122.8,116.8-215.25,117.45c-95.86,0.67-191.72,0.14-287.59,0.17c-7.78,0-12.18,3.52-12.23,9.52
		c-0.05,5.97,4.51,9.72,12.06,9.92c0.81,0.02,1.62,0.01,2.43,0.01c95.25,0,190.51,0.03,285.76-0.02c24-0.01,47.73-2.55,70.97-8.73
		C729.58,769.88,814.11,639.97,792.18,501.67z"/>
	<path class="st0" d="M840.66,796.38c-17.02-13.39-34.07-26.74-51.2-39.99c-5.73-4.43-11.31-3.96-14.95,0.87
		c-3.55,4.72-2.38,10.15,3.32,14.65c8.1,6.39,16.25,12.73,24.44,19.02c1.34,1.03,2.99,1.64,4.5,2.44c-0.52,0.63-1.03,1.26-1.55,1.89
		c-2.19,0-4.38,0-6.58,0c-32.19,0-64.39-0.03-96.58,0.04c-6.9,0.01-10.94,3.65-11.03,9.42c-0.09,5.75,3.97,9.56,10.69,9.97
		c1.61,0.1,3.24,0.03,4.86,0.03c30.98,0,61.96,0,92.93,0.01c2,0,4,0.18,7.43,0.35c-10.97,8.56-20.6,15.95-30.07,23.53
		c-4.74,3.79-5.56,8.99-2.55,13.42c2.9,4.27,8.18,5.5,12.87,2.93c1.06-0.58,2.01-1.36,2.96-2.11c16.28-12.69,32.6-25.34,48.79-38.14
		c2.48-1.96,4.4-4.63,6.58-6.98c0-2.03,0-4.05,0-6.08C843.92,799.88,842.51,797.84,840.66,796.38z"/>
	<path class="st0" d="M686.19,448.47c-48.09-27.6-96.11-55.32-144.07-83.17c-5.54-3.22-10.27-3.25-15.82-0.02
		c-47.94,27.86-95.95,55.61-144.05,83.21c-5.4,3.1-7.69,6.94-7.65,13.16c0.21,27.75,0.09,55.5,0.09,83.26
		c0,27.95,0.1,55.91-0.08,83.86c-0.04,5.96,2.15,9.75,7.33,12.72c48.26,27.72,96.45,55.55,144.58,83.49
		c5.33,3.1,9.96,3.15,15.29,0.06c47.96-27.82,95.98-55.56,144.07-83.16c5.55-3.19,7.91-7.19,7.89-13.67
		c-0.18-55.5-0.16-111.01-0.01-166.51C693.79,455.48,691.57,451.56,686.19,448.47z M524.46,694.58c0,1.81,0,3.62,0,6.61
		c-16.41-9.46-31.8-18.32-47.17-27.2c-26.28-15.17-52.59-30.28-78.75-45.63c-1.99-1.17-4.19-4.08-4.2-6.19
		c-0.23-47.78-0.18-95.56-0.16-143.34c0-0.75,0.21-1.5,0.44-3.01c8.27,4.73,16.12,9.18,23.94,13.69
		c33.46,19.31,66.88,38.69,100.41,57.87c3.89,2.23,5.66,4.48,5.63,9.33C524.36,602.67,524.46,648.63,524.46,694.58z M538.94,531.18
		c-3.02,1.75-5.4,2.41-8.83,0.42c-40.6-23.62-81.3-47.05-121.97-70.55c-1.17-0.68-2.25-1.53-3.92-2.69
		c13.48-7.8,26.39-15.27,39.31-22.73c28.75-16.6,57.48-33.26,86.33-49.68c2.01-1.14,5.61-1.69,7.42-0.66
		c41.67,23.79,83.18,47.83,124.72,71.84c0.51,0.3,0.95,0.72,1.84,1.39c-1.44,1-2.64,1.99-3.96,2.75
		C619.57,484.57,579.23,507.83,538.94,531.18z M670.32,628.41c-41.07,23.53-82.03,47.25-123.03,70.91
		c-0.83,0.48-1.71,0.85-3.37,1.66c0-2.69,0-4.62,0-6.55c0-45.96,0.07-91.93-0.12-137.89c-0.02-4.48,1.44-6.74,5.24-8.92
		c39.85-22.81,79.59-45.82,119.36-68.77c1.55-0.89,3.14-1.71,5.82-3.17c0,2.8,0,4.59,0,6.39c0,46.17-0.03,92.33,0.06,138.5
		C674.29,624.05,673.77,626.43,670.32,628.41z"/>
	<path class="st0" d="M348.89,748.07c2.09,1.91,4.22,3.85,6.61,5.34c4.58,2.86,9.14,2.26,12.55-1.83c3.38-4.05,3.26-8.63-0.29-12.71
		c-1.58-1.82-3.57-3.29-5.37-4.92c-66.02-60.03-95.85-134.57-83.35-222.95c13.38-94.57,66.73-160.35,154.44-198.07
		c9.25-3.98,19.12-6.53,28.71-9.74c5.09-1.7,7.64-5.27,7.15-10.59c-0.45-4.82-4.8-8.41-10.26-8.45c-1.38,0.33-3.36,0.74-5.31,1.29
		c-108.27,30.59-186.14,123.2-195.67,235.1C250.38,611.12,281.73,686.95,348.89,748.07z"/>
</g>
</svg>
