<?xml version="1.0" encoding="utf-8"?>
<!-- Generator: Adobe Illustrator 26.0.2, SVG Export Plug-In . SVG Version: 6.00 Build 0)  -->
<svg version="1.1" id="Camada_1" xmlns="http://www.w3.org/2000/svg" xmlns:xlink="http://www.w3.org/1999/xlink" x="0px" y="0px"
	 viewBox="0 0 1080 1080" style="enable-background:new 0 0 1080 1080;" xml:space="preserve">
<style type="text/css">
	.st0{fill:#FFFFFF;}
</style>
<g>
	<path class="st0" d="M763.33,495.67c-4.9-10.66-12.45-19.66-23.77-28.3c-14.6-11.16-20.73-26.45-17.7-44.23
		c1.23-7.26,4.22-13.56,7.1-19.65l0.86-1.82c13.16-28.01,2.27-63.68-24.27-79.5c-16.16-9.64-32.99-11.87-51.46-6.85
		c-18.28,4.98-34.39,0.85-46.59-11.91c-5.15-5.39-8.36-11.66-11.47-17.73c-0.48-0.93-0.94-1.84-1.41-2.73
		c-6.38-12.22-13.98-20.43-23.23-25.11c-5.7-2.88-12.04-4.97-18.75-7.18l-0.19-0.06c-2.45-0.81-4.98-1.64-7.49-2.52h-13.99
		c-11.74,2.73-21.27,5.81-29.55,11.87c-9.55,6.98-16.83,16.55-22.91,30.1c-6.63,14.77-18.39,23.99-33.12,25.96
		c-9.22,1.24-18.56-0.23-27.34-1.84c-26.06-4.78-47.26,2.8-63.02,22.53c-16.07,20.11-18.82,42.46-7.94,64.63
		c14.24,29.04,8.82,52.49-16.57,71.69c-21.4,16.19-28.75,48.63-16.73,73.86c9.45,19.83,25.28,31.99,47.03,36.14
		c15.44,2.94,27.32,10.96,34.36,23.18c8.11,14.09,9.06,32.71,2.61,51.09c-7.1,20.21-16.39,39.71-25.38,58.56
		c-3.83,8.03-7.79,16.33-11.56,24.68l-3.6,7.97c-5.57,12.32-11.14,24.64-16.66,36.98c-1.75,3.92-1.44,6.71,1.07,9.66
		c1.98,2.32,4.38,3.6,9.7,2.28c1.72-0.42,3.48-0.94,5.34-1.48l0.55-0.16c1.07-0.31,2.13-0.62,3.19-0.91l63.71-17.6l5.24,10.14
		c0.89,1.69,1.68,3.21,2.43,4.77c3.4,7.03,6.8,14.06,10.19,21.1l0.5,1.04c5,10.36,10,20.72,15.02,31.07
		c2.03,4.18,4.42,5.89,8.25,5.89c2.66-0.05,5.6-0.8,8.06-5.97c0.62-1.32,1.23-2.65,1.83-3.98l10.92-24.16
		c12.46-27.58,24.91-55.15,37.39-82.72c0.79-1.74,1.65-3.35,2.49-4.91c0.42-0.77,0.84-1.56,1.29-2.43l9.82-18.86L548.39,730
		c0.85,1.71,1.51,3.01,2.14,4.33l12.49,25.91c12.36,25.63,26.37,54.68,40.12,83.37c3.05,6.37,5.8,7.67,8.99,7.67
		c3.49-0.04,6.29-1.36,9.12-7.72c6.19-13.91,12.56-27.88,18.71-41.38l5.72-12.54c0.72-1.59,1.5-3.03,2.13-4.18l0.12-0.23
		c0.21-0.39,0.42-0.78,0.62-1.17l3.61-6.95l7.73,1.25c0.37,0.06,0.66,0.1,0.91,0.14c0.97,0.14,1.65,0.26,2.35,0.44
		c6.03,1.51,12.04,3.04,18.05,4.56l1.18,0.3c14.4,3.65,29.21,7.41,43.91,10.91c2.92,0.69,5.75,0.25,7.75-1.23
		c1.65-1.21,2.6-3.03,2.75-5.25c0.14-2.07-0.8-5.47-2.53-9.1c-12.51-26.3-25.39-53-37.84-78.81l-4.68-9.7
		c-4.57-9.47-9.14-18.95-13.7-28.42l-0.28-0.57c-1.25-2.57-3.13-6.44-3.07-11.04c0.11-8.44,0.52-16.9,1.22-25.14
		c1.74-20.29,15.19-36.06,35.11-41.15c3.35-0.86,6.65-1.63,10.32-2.47c17.33-4,32.09-16.11,40.5-33.23
		C770.29,531.32,770.84,512.04,763.33,495.67z M717.27,565.34c-12.92,3.09-25.31,6.53-34.87,14.59
		c-15.6,13.14-23.29,29.27-23.53,49.29c-0.01,1.16,0.01,2.32,0.02,3.48c0.07,3.99,0.13,7.94-0.6,12.21
		c-2.84,16.52-13.88,29.86-29.54,35.68c-15.44,5.73-32.24,2.92-44.96-7.54c-14.28-11.75-26.72-17.43-40.31-18.4
		c-3.38-0.25-6.68-0.26-9.9-0.04l32.87,26.67c29.58,23.99,58.79,24.9,89.28,2.77l10.48-7.6l47.02,97.5l-31.46-7.67
		c-5.31-1.3-10.31-2.51-15.31-3.75c-2.22-0.55-4.44-1.11-6.66-1.68l-0.89-0.22c-2.42-0.62-4.82-1.23-7.23-1.83
		c-7.22-1.78-10.22-0.34-13.36,6.41c-3.72,7.99-7.36,16.04-11.21,24.57l-3.35-1.3l3.27,1.48c-1.77,3.93-3.59,7.95-5.49,12.12
		L612,823.12l-75.64-156.78l-70.79,156.47l-12.94-26.27c-1.73-3.51-3.3-6.69-4.85-9.88c-1.32-2.71-2.63-5.43-3.94-8.16l-0.3-0.62
		c-1.84-3.83-3.68-7.65-5.54-11.46c-3.65-7.45-6.33-8.68-14.28-6.51c-6.62,1.8-13.23,3.63-19.85,5.46l-0.32,0.09
		c-4.61,1.27-9.21,2.54-13.82,3.81c-1.03,0.28-2.02,0.49-3.16,0.71l-1.88,0.39l-20.9,4.44l45.19-100.09l10.83,8.31
		c28.47,21.85,56.61,22.5,86.01,2.02l29.63-20.63l-4.62-9.57c-12.5,1.39-23.78,6.37-33.65,14.88c-6.87,5.92-17.72,13.8-32.52,13.8
		c-1.97,0-3.97-0.14-5.95-0.43c-22.23-3.18-43.53-20.58-41.05-52.31c0.26-31.97-19.84-56.91-51.25-63.54
		c-13.12-2.77-29.2-8.37-37.16-27.2c-9.46-22.37-3.85-42.8,15.78-57.52c10.68-8.01,17.95-16.93,22.23-27.29
		c7.57-18.32,6.88-36.47-2.06-53.93c-4.94-9.65-9.18-20.35-6.73-33.2c2.54-13.36,9.94-24.53,20.82-31.46
		c10.82-6.88,24-8.84,37.09-5.51c15.14,3.85,27.69,3.8,39.5-0.16c17.28-5.79,29.6-16.68,37.67-33.28c0.42-0.87,0.82-1.74,1.22-2.61
		l0.09-0.2c0.68-1.48,1.39-3.02,2.16-4.54c8.4-16.43,22.59-25.15,41.05-25.22h0.21c19.41,0,33.75,8.96,41.48,25.91
		c7.02,15.4,14.63,25.25,24.66,31.94c16.02,10.68,33.24,13.74,51.18,9.08c12.65-3.29,31.36-5.87,47.71,9.56
		c16.38,15.45,20.04,35.65,10.05,55.42c-6.24,12.34-8.97,21.51-9.14,30.67c-0.41,22.22,8.24,40.2,25.69,53.44
		c7.95,6.03,17.49,14.82,20.73,29.37C756.07,535.05,741.12,559.63,717.27,565.34z"/>
	<path class="st0" d="M538.57,349.52l-0.8,0c-34.83,0-67.88,13.81-93.07,38.9c-25.49,25.39-39.49,58.84-39.43,94.21
		c0.14,73.22,59.8,132.85,132.98,132.93c73.17,0,132.78-59.61,133.03-132.87C671.55,409.69,612,349.96,538.57,349.52z
		 M538.89,598.58l-0.83,0c-30.68,0-59.6-11.94-81.45-33.62c-22.13-21.96-34.33-51.21-34.35-82.36c-0.02-31.01,11.99-60.13,33.8-82
		c21.81-21.87,50.92-33.97,81.96-34.09l0.43,0c30.8,0,59.78,11.94,81.59,33.63c21.91,21.79,34.08,50.89,34.27,81.95
		C654.68,545.87,602.91,598.12,538.89,598.58z"/>
	<path class="st0" d="M589.95,453.29c-2.01-0.54-4.48-0.58-9.01,2.76c-12.32,9.08-24.26,17.79-36.91,27.02l-23.62,17.25l-9.47-13.5
		c-1.81-2.59-3.52-5.05-5.25-7.43c-2.47-3.39-5.4-5.25-8.24-5.25c-1.59,0-3.2,0.58-4.77,1.72c-5.67,4.1-2.86,10.04-0.68,13.21
		c4.75,6.92,9.7,13.91,14.48,20.68l2.94,4.17c2.82,3.99,5.39,6.2,7.63,6.57c2.24,0.38,5.38-0.9,9.34-3.78
		c14.42-10.48,28.81-21,43.2-31.53l6.53-4.77c1.4-1.03,2.82-2.05,4.23-3.07l0.49-0.35c4.2-3.03,8.52-6.14,12.5-9.35
		c2.68-2.16,3.46-4.66,2.63-8.38C595.24,455.97,593.5,454.24,589.95,453.29z"/>
</g>
</svg>
